PathFileType	4	(X/Y/Z)	OpenSim_Sub06_EMGStiffKnee_Gyro.trc
DataRate	CameraRate	NumFrames	NumMarkers	Units	OrigDataRate	OrigDataStartFrame	OrigNumFrames
100	100	27	8	m	100	4075	5432
Frame#	Time	torso_imu_offset_imu	pelvis_imu_offset_imu	tibia_r_imu_offset_imu	femur_r_imu_offset_imu	tibia_l_imu_offset_imu	femur_l_imu_offset_imu	toes_r_imu_offset_imu	toes_l_imu_offset_imu
				X1	Y1	Z1	X2	Y2	Z2	X3	Y3	Z3	X4	Y4	Z4	X5	Y5	Z5	X6	Y6	Z6	X7	Y7	Z7	X8		Y8	Z8	

4075	40.74000000	0.00202100	0.18020100	0.14707800	0.20275700	-0.25605300	-0.01048600	-0.40933800	-0.88094900	-0.70296200	-0.52344200	-0.40734400	0.96636900	0.35238400	0.44872800	1.39204100	-0.19534000	-0.04519000	0.99561300	-0.80268500	-1.17947300	-0.07914700	-0.27870600	-0.47531900	0.38478200
4076	40.75000000	0.04588800	0.25831200	0.14863000	0.22768500	-0.21633100	-0.09369500	-0.65996000	-0.84752700	-1.39166100	-0.82913800	-0.36204900	1.04900900	0.49298000	0.54070300	1.53603200	0.00906100	-0.02048600	0.93913700	-0.66638800	-1.70388900	-0.62105800	-0.24141000	-0.51427100	0.39589100
4077	40.76000000	0.10735600	0.34504600	0.13637100	0.30799600	-0.18849600	-0.20556700	-0.52257000	-0.78989100	-1.83696100	-0.89267800	-0.34469000	1.02923700	0.57385100	0.63076500	1.66057500	0.20277200	0.02204100	0.82924800	1.83097200	-2.55640000	-1.92079900	-0.31588300	-0.60434400	0.44278600
4078	40.77000000	0.19268300	0.42715700	0.11858900	0.43112500	-0.18078900	-0.30385200	-0.58796400	-0.69694300	-2.12710700	-0.77064500	-0.37765500	0.99839100	0.54011600	0.74685400	1.80607700	0.36148000	0.07108000	0.67107900	6.84399300	-3.59725300	-1.27060700	-0.37413700	-0.65622600	0.46528500
4079	40.78000000	0.27185700	0.47712900	0.07327100	0.57549800	-0.21555200	-0.35153500	-0.92134100	-1.03642700	-2.21476400	-0.70558100	-0.60159400	0.93530500	0.38460700	0.85316200	1.97220000	0.48035000	0.11466000	0.47551000	0.47092100	-1.85780100	-0.96391500	-0.35641700	-0.76520100	0.47843000
4080	40.79000000	0.30889800	0.43755800	-0.02535700	0.71480600	-0.47136800	-0.24949100	-2.76530100	-1.92404300	-1.89167500	-0.90954800	-1.24671500	0.68824600	0.12165400	0.89506600	2.14613400	0.54978200	0.15071900	0.22678200	3.77568200	6.21269500	-0.92685800	-0.41876900	-0.95462600	0.50198800
4081	40.80000000	0.26428000	0.36118400	-0.15207600	0.72516900	-0.97481500	0.15508100	-5.47379100	-1.68976000	-1.29455900	-1.69833600	-2.25501500	0.11387000	-0.17299100	0.82264600	2.29154300	0.49270800	0.17211800	-0.07547300	-6.50198400	-2.56308400	-1.40828700	-0.46517000	-1.30451900	0.57916200
4082	40.81000000	0.17067200	0.48942000	-0.08945800	0.84012200	-0.95894000	0.65813600	-4.06362500	-0.25202300	-1.52035800	-1.60171300	-2.06793900	-0.63529700	-0.52489700	0.69274500	2.35285900	0.30000600	0.15934300	-0.36452800	3.83008900	2.45864400	0.47988200	-0.75280400	-1.72049800	0.79135100
4083	40.82000000	0.12470600	0.44928200	-0.00283300	0.38275400	-0.17210800	0.94293400	-0.02337200	0.73183200	-2.33434700	0.38100700	0.20638500	-0.32394500	-0.85296200	0.52739700	2.47506200	-0.03841500	0.10875800	-0.61981900	-0.46644200	-0.22389600	0.03766400	-0.73286400	-2.13878700	1.05133900
4084	40.83000000	0.08421500	0.31875800	0.03531200	-0.91459700	0.15090100	0.56871000	1.57559500	0.50186400	-2.54842200	0.69782300	1.49762700	0.41760600	-0.84444300	0.15630600	2.70048700	-0.40063700	0.02927200	-0.86916200	-0.24763200	-0.24483300	0.33191400	-0.72437600	-2.55641300	1.34561500
4085	40.84000000	0.13576500	0.18182900	0.07634000	-1.25307400	0.24810900	0.02757000	2.44429600	0.78940900	-2.50580700	-1.00381600	1.02307700	0.95234600	-0.74425700	-0.21048600	2.87664700	-0.78211700	-0.05762100	-1.15629300	-0.46787700	-0.37081400	0.45621500	-0.99714700	-2.96246500	1.69762900
4086	40.85000000	0.16230200	0.00956800	0.03634700	-0.84845800	0.41672300	-0.35958100	3.49406900	1.19754400	-2.27556500	-1.74159200	0.30933700	0.95114200	-0.86936500	-0.41080000	2.87542500	-1.09560000	0.00262300	-1.61210700	-0.44610900	-0.38629800	0.50091900	-1.31032100	-3.43105700	2.06162800
4087	40.86000000	0.11844800	-0.12966100	0.04389200	-0.26130400	0.36027100	-0.50868800	4.38344900	0.65846100	-1.71096000	-0.93459300	-0.09674300	0.60272200	-0.98824700	-0.46434300	2.80797600	-0.94535200	0.38894400	-2.09308500	-0.41492400	-0.36718100	0.46882400	-1.00841900	-4.02626200	2.32446200
4088	40.87000000	0.03840400	-0.19191300	0.19091000	0.15952500	0.17083300	-0.55115600	4.17504700	-0.56149100	-1.13997800	-0.18826200	-0.27922400	0.06857500	-0.57785300	-0.53345800	2.88390000	-0.40728900	1.00880200	-2.45750900	-0.29872500	-0.29654100	0.35205000	-0.52970800	-4.75123100	2.49156500
4089	40.88000000	0.12249700	-0.20991600	0.31612600	0.36387400	0.04956500	-0.58962700	2.40545100	-1.25340900	-0.83208800	-0.35134700	-0.29878400	-0.51765100	0.39760000	-0.69196500	3.00281000	0.17143600	1.51840200	-2.65415500	-0.18292400	-0.23374600	0.16515400	1.74313500	-5.13381700	2.47586600
4090	40.89000000	0.37852800	-0.19695300	0.36004600	0.45316400	0.06420900	-0.38223800	1.05962000	-0.90802600	-0.37509100	-0.87189800	-0.42451700	-1.12951500	1.39890600	-0.50535200	2.97143700	0.49049500	1.69870800	-2.64860500	-0.00972900	-0.00917800	0.01051300	1.58045900	-5.38463000	2.62046600
4091	40.90000000	0.56611800	-0.19026100	0.30693600	0.51485100	0.13333200	-0.11352800	1.40112000	-0.30272000	0.25151500	-1.29518700	-0.96256300	-1.72199500	1.76155400	-0.15914900	2.78003900	0.30693900	1.51712200	-2.41205900	0.03818700	0.12337400	-0.14515200	0.01753600	-4.77461200	2.73045300
4092	40.91000000	0.56934400	-0.13888600	0.20029100	0.60246100	0.19685200	0.11092800	1.08888700	-0.13581800	0.43419600	-1.71960600	-1.44158100	-2.08564800	1.67531700	-0.01330800	2.45507000	-0.06900400	1.16243000	-2.12773300	0.05568100	0.16735400	-0.17221300	-0.19133000	-3.91342000	2.50648200
4093	40.92000000	0.48290600	-0.06353000	0.15476900	0.74786600	0.22838000	0.22717700	-0.85487800	-0.38307700	0.02685300	-1.58589300	-1.00383600	-2.02971800	1.52170100	-0.13867300	2.07067200	-0.37676700	0.84830600	-1.91767300	0.06424700	0.10504800	-0.16982100	-0.88891600	-1.67837200	1.71649500
4094	40.93000000	0.45144100	0.00547800	0.14795500	0.86895200	0.19068700	0.29635100	-2.15173200	-0.52426300	-0.64768000	0.00738200	-0.29661400	-1.42042600	1.59907100	-0.37474300	1.60564500	-0.37708700	0.63304000	-1.73646400	-0.06003300	0.00201300	-0.09574800	-0.95402200	-1.22904200	1.74246800
4095	40.94000000	0.44430100	0.03537300	0.12310700	0.88321700	0.12870000	0.32108300	-2.38843000	-0.33422800	-0.86947700	1.46763300	-0.03188500	-1.13098600	2.17695500	-0.53137900	0.97928400	-0.12223200	0.41540100	-1.52310000	-0.11362300	-0.09536400	-0.04369900	0.59431200	1.26180000	0.73119600
4096	40.95000000	0.41104900	0.00889900	0.11569300	0.75914500	0.16000100	0.28430400	-1.98584400	-0.05323700	-0.77760000	1.49195700	-0.27069200	-1.11578200	2.81205800	-0.56104600	0.14445400	0.11475700	0.19948900	-1.27873200	-0.16182700	-0.15283700	0.01605600	0.70391500	0.57738100	0.57108800
4097	40.96000000	0.48985300	-0.07650900	0.12537100	0.52287300	0.28523500	0.15397100	-1.08231000	0.03019300	-0.71943200	1.11258800	-0.53598800	-1.10361600	2.94076400	-0.37308100	-0.73183000	0.31915800	0.13398800	-1.20380200	-0.19360800	-0.18778900	0.04728300	0.05516100	0.44159500	0.31433500
4098	40.97000000	0.58935600	-0.11154100	0.17758300	0.38213000	0.37953100	0.02298100	0.03735400	-0.10887900	-0.59473100	1.18696600	-0.58872500	-1.06454900	2.53259900	-0.10148700	-1.39746000	0.55490600	0.29071200	-1.33476500	-0.17894500	-0.24239000	0.04113400	0.66240300	0.89454200	-0.11585500
4099	40.98000000	0.66257500	-0.12730500	0.24284000	0.41856200	0.43156900	-0.07331400	0.85216300	-0.22478200	-0.33284200	1.35441600	-0.47712300	-0.97816000	1.64948000	0.07392600	-1.83336300	0.71554300	0.46574100	-1.57197500	-0.20874300	-0.23701200	0.04072600	0.60905300	1.44018400	-0.43912200
4100	40.99000000	0.73280700	-0.13808400	0.28055400	0.48776100	0.41621400	-0.16942400	1.38341900	-0.23875800	-0.16864100	1.23369100	-0.28677300	-1.00634800	0.43409500	0.08455200	-2.12761300	0.84875700	0.55483900	-1.74431100	-0.17162300	-0.25247200	0.01283600	0.75432900	1.79046300	-0.57248200
4101	41	0.78623300	-0.17037400	0.29063700	0.49068200	0.35521000	-0.28663300	1.75408400	-0.21758900	-0.17178100	0.83030900	-0.17331300	-1.08274700	-0.67351600	-0.06928000	-2.49478500	0.95832300	0.53063300	-1.77670400	-0.10754400	-0.24566300	-0.05857200	0.78745100	2.00456200	-0.57231000
